TITLE ""
FILE "DISC2Track10.mp3" MP3
  TRACK 01 AUDIO
    TITLE "DISC2Track10_01"
    INDEX 01 00:00:00
  TRACK 02 AUDIO
    TITLE "DISC2Track10_02"
    INDEX 01 00:01:39
  TRACK 03 AUDIO
    TITLE "DISC2Track10_03"
    INDEX 01 00:01:57
  TRACK 04 AUDIO
    TITLE "DISC2Track10_04"
    INDEX 01 00:04:34
  TRACK 05 AUDIO
    TITLE "DISC2Track10_05"
    INDEX 01 00:07:01
  TRACK 06 AUDIO
    TITLE "DISC2Track10_06"
    INDEX 01 00:09:03
  TRACK 07 AUDIO
    TITLE "DISC2Track10_07"
    INDEX 01 00:09:23
  TRACK 08 AUDIO
    TITLE "DISC2Track10_08"
    INDEX 01 00:12:21
  TRACK 09 AUDIO
    TITLE "DISC2Track10_09"
    INDEX 01 00:15:39
  TRACK 10 AUDIO
    TITLE "DISC2Track10_10"
    INDEX 01 00:18:22
  TRACK 11 AUDIO
    TITLE "DISC2Track10_11"
    INDEX 01 00:18:36
  TRACK 12 AUDIO
    TITLE "DISC2Track10_12"
    INDEX 01 00:22:12
  TRACK 13 AUDIO
    TITLE "DISC2Track10_13"
    INDEX 01 00:25:04
  TRACK 14 AUDIO
    TITLE "DISC2Track10_14"
    INDEX 01 00:27:52
  TRACK 15 AUDIO
    TITLE "DISC2Track10_15"
    INDEX 01 00:27:68
  TRACK 16 AUDIO
    TITLE "DISC2Track10_16"
    INDEX 01 00:31:62
  TRACK 17 AUDIO
    TITLE "DISC2Track10_17"
    INDEX 01 00:35:16
  TRACK 18 AUDIO
    TITLE "DISC2Track10_18"
    INDEX 01 00:38:11
  TRACK 19 AUDIO
    TITLE "DISC2Track10_19"
    INDEX 01 00:38:27
  TRACK 20 AUDIO
    TITLE "DISC2Track10_20"
    INDEX 01 00:41:23
  TRACK 21 AUDIO
    TITLE "DISC2Track10_21"
    INDEX 01 00:44:33
  TRACK 22 AUDIO
    TITLE "DISC2Track10_22"
    INDEX 01 00:47:10
  TRACK 23 AUDIO
    TITLE "DISC2Track10_23"
    INDEX 01 00:47:27
  TRACK 24 AUDIO
    TITLE "DISC2Track10_24"
    INDEX 01 00:50:30
  TRACK 25 AUDIO
    TITLE "DISC2Track10_25"
    INDEX 01 00:53:32
  TRACK 26 AUDIO
    TITLE "DISC2Track10_26"
    INDEX 01 00:56:13
  TRACK 27 AUDIO
    TITLE "DISC2Track10_27"
    INDEX 01 00:56:28
  TRACK 28 AUDIO
    TITLE "DISC2Track10_28"
    INDEX 01 00:57:71
  TRACK 29 AUDIO
    TITLE "DISC2Track10_29"
    INDEX 01 00:59:70
  TRACK 30 AUDIO
    TITLE "DISC2Track10_30"
    INDEX 01 01:01:49
  TRACK 31 AUDIO
    TITLE "DISC2Track10_31"
    INDEX 01 01:01:67
  TRACK 32 AUDIO
    TITLE "DISC2Track10_32"
    INDEX 01 01:05:43
  TRACK 33 AUDIO
    TITLE "DISC2Track10_33"
    INDEX 01 01:08:59
  TRACK 34 AUDIO
    TITLE "DISC2Track10_34"
    INDEX 01 01:11:38
  TRACK 35 AUDIO
    TITLE "DISC2Track10_35"
    INDEX 01 01:11:55
  TRACK 36 AUDIO
    TITLE "DISC2Track10_36"
    INDEX 01 01:14:58
  TRACK 37 AUDIO
    TITLE "DISC2Track10_37"
    INDEX 01 01:17:66
  TRACK 38 AUDIO
    TITLE "DISC2Track10_38"
    INDEX 01 01:20:50
  TRACK 39 AUDIO
    TITLE "DISC2Track10_39"
    INDEX 01 01:20:64
  TRACK 40 AUDIO
    TITLE "DISC2Track10_40"
    INDEX 01 01:23:61
  TRACK 41 AUDIO
    TITLE "DISC2Track10_41"
    INDEX 01 01:26:73
  TRACK 42 AUDIO
    TITLE "DISC2Track10_42"
    INDEX 01 01:29:55
  TRACK 43 AUDIO
    TITLE "DISC2Track10_43"
    INDEX 01 01:29:71
  TRACK 44 AUDIO
    TITLE "DISC2Track10_44"
    INDEX 01 01:32:14
  TRACK 45 AUDIO
    TITLE "DISC2Track10_45"
    INDEX 01 01:34:33
  TRACK 46 AUDIO
    TITLE "DISC2Track10_46"
    INDEX 01 01:36:22
  TRACK 47 AUDIO
    TITLE "DISC2Track10_47"
    INDEX 01 01:36:46
  TRACK 48 AUDIO
    TITLE "DISC2Track10_48"
    INDEX 01 01:39:15
  TRACK 49 AUDIO
    TITLE "DISC2Track10_49"
    INDEX 01 01:42:13
  TRACK 50 AUDIO
    TITLE "DISC2Track10_50"
    INDEX 01 01:44:51
